<svg xmlns="http://www.w3.org/2000/svg" viewBox="0 0 1000 480" font-family="'Segoe UI', system-ui, -apple-system, sans-serif">
  <defs>
    <marker id="arrow" viewBox="0 0 10 7" refX="10" refY="3.5" markerWidth="10" markerHeight="7" orient="auto-start-reverse">
      <path d="M 0 0 L 10 3.5 L 0 7 z" fill="#444"/>
    </marker>
    <marker id="arrow-gray" viewBox="0 0 10 7" refX="10" refY="3.5" markerWidth="10" markerHeight="7" orient="auto-start-reverse">
      <path d="M 0 0 L 10 3.5 L 0 7 z" fill="#999"/>
    </marker>
    <marker id="arrow-orange" viewBox="0 0 10 7" refX="10" refY="3.5" markerWidth="10" markerHeight="7" orient="auto-start-reverse">
      <path d="M 0 0 L 10 3.5 L 0 7 z" fill="#f08c00"/>
    </marker>
    <marker id="arrow-green" viewBox="0 0 10 7" refX="10" refY="3.5" markerWidth="10" markerHeight="7" orient="auto-start-reverse">
      <path d="M 0 0 L 10 3.5 L 0 7 z" fill="#2f9e44"/>
    </marker>
    <filter id="shadow" x="-4%" y="-4%" width="108%" height="116%">
      <feDropShadow dx="1" dy="2" stdDeviation="2" flood-opacity="0.08"/>
    </filter>
  </defs>

  <text x="500" y="28" text-anchor="middle" font-size="20" font-weight="700" fill="#1e1e1e">frndOS Workflow State Machine</text>
  <text x="500" y="48" text-anchor="middle" font-size="12" fill="#757575">11 phases · gate enforcement · wireframe-skip path · Agent Teams shortcut</text>

  <!-- Row 1 -->
  <rect x="10" y="72" width="100" height="44" rx="10" fill="#e9ecef" stroke="#868e96" stroke-width="2" filter="url(#shadow)"/>
  <text x="60" y="99" text-anchor="middle" font-size="13" font-weight="600" fill="#1e1e1e">Idle</text>
  <line x1="110" y1="94" x2="130" y2="94" stroke="#444" stroke-width="2" marker-end="url(#arrow)"/>

  <rect x="135" y="72" width="145" height="44" rx="10" fill="#a5d8ff" stroke="#1971c2" stroke-width="2" filter="url(#shadow)"/>
  <text x="207" y="99" text-anchor="middle" font-size="12" font-weight="600" fill="#1e1e1e">1. PRD Creation</text>
  <text x="207" y="130" text-anchor="middle" font-size="10" fill="#757575">frndos-prd</text>
  <line x1="280" y1="94" x2="300" y2="94" stroke="#444" stroke-width="2" marker-end="url(#arrow)"/>

  <rect x="305" y="72" width="125" height="44" rx="10" fill="#d0bfff" stroke="#9c36b5" stroke-width="2" filter="url(#shadow)"/>
  <text x="367" y="99" text-anchor="middle" font-size="12" font-weight="600" fill="#1e1e1e">2. Wireframe</text>
  <text x="367" y="130" text-anchor="middle" font-size="10" fill="#757575">frndos-wireframe</text>
  <line x1="430" y1="94" x2="450" y2="94" stroke="#444" stroke-width="2" marker-end="url(#arrow)"/>

  <rect x="455" y="72" width="145" height="44" rx="10" fill="#d0bfff" stroke="#9c36b5" stroke-width="2" filter="url(#shadow)"/>
  <text x="527" y="99" text-anchor="middle" font-size="12" font-weight="600" fill="#1e1e1e">3. Wireframe PR</text>
  <text x="527" y="130" text-anchor="middle" font-size="10" fill="#757575">frndos-pr</text>
  <line x1="600" y1="94" x2="620" y2="94" stroke="#444" stroke-width="2" marker-end="url(#arrow)"/>

  <rect x="625" y="72" width="175" height="44" rx="10" fill="#d0bfff" stroke="#9c36b5" stroke-width="2" filter="url(#shadow)"/>
  <text x="712" y="99" text-anchor="middle" font-size="12" font-weight="600" fill="#1e1e1e">4. Wireframe Review</text>
  <text x="712" y="130" text-anchor="middle" font-size="10" fill="#757575">frndos-pr</text>

  <line x1="712" y1="116" x2="712" y2="155" stroke="#444" stroke-width="2" marker-end="url(#arrow)"/>

  <!-- Skip wireframe path (dashed orange) -->
  <path d="M 207 72 Q 207 50 500 50 Q 712 50 712 72" fill="none" stroke="#f08c00" stroke-width="1.5" stroke-dasharray="6 3"/>
  <path d="M 712 50 L 860 50 Q 875 50 875 65 L 875 155" fill="none" stroke="#f08c00" stroke-width="1.5" stroke-dasharray="6 3" marker-end="url(#arrow-orange)"/>
  <text x="540" y="44" text-anchor="middle" font-size="10" fill="#f08c00" font-style="italic">skip wireframe</text>

  <!-- Row 2 (right to left) -->
  <rect x="810" y="160" width="175" height="44" rx="10" fill="#b2f2bb" stroke="#2f9e44" stroke-width="2" filter="url(#shadow)"/>
  <text x="897" y="187" text-anchor="middle" font-size="12" font-weight="600" fill="#1e1e1e">5. Branch Creation</text>
  <text x="897" y="218" text-anchor="middle" font-size="10" fill="#757575">frndos-orchestra</text>
  <line x1="810" y1="182" x2="790" y2="182" stroke="#444" stroke-width="2" marker-end="url(#arrow)"/>

  <rect x="625" y="160" width="160" height="44" rx="10" fill="#b2f2bb" stroke="#2f9e44" stroke-width="2" filter="url(#shadow)"/>
  <text x="705" y="187" text-anchor="middle" font-size="12" font-weight="600" fill="#1e1e1e">6. PRD Splitting</text>
  <text x="705" y="218" text-anchor="middle" font-size="10" fill="#757575">frndos-splitter</text>
  <line x1="625" y1="182" x2="605" y2="182" stroke="#444" stroke-width="2" marker-end="url(#arrow)"/>

  <rect x="435" y="160" width="165" height="44" rx="10" fill="#b2f2bb" stroke="#2f9e44" stroke-width="2" filter="url(#shadow)"/>
  <text x="517" y="187" text-anchor="middle" font-size="12" font-weight="600" fill="#1e1e1e">7. Implementation</text>
  <text x="517" y="218" text-anchor="middle" font-size="10" fill="#757575">frndos-implement / teams</text>
  <line x1="435" y1="182" x2="415" y2="182" stroke="#444" stroke-width="2" marker-end="url(#arrow)"/>

  <rect x="245" y="160" width="165" height="44" rx="10" fill="#ffd8a8" stroke="#f08c00" stroke-width="2" filter="url(#shadow)"/>
  <text x="327" y="187" text-anchor="middle" font-size="12" font-weight="600" fill="#1e1e1e">8. PR Submission</text>
  <text x="327" y="218" text-anchor="middle" font-size="10" fill="#757575">frndos-pr (sequential)</text>

  <line x1="327" y1="204" x2="327" y2="243" stroke="#444" stroke-width="2" marker-end="url(#arrow)"/>

  <!-- Agent Teams shortcut (dashed green from Implementation to Completion) -->
  <path d="M 517 204 Q 517 290 460 290" fill="none" stroke="#2f9e44" stroke-width="1.5" stroke-dasharray="6 3" marker-end="url(#arrow-green)"/>
  <text x="530" y="260" font-size="10" fill="#2f9e44" font-style="italic">Agent Teams</text>

  <!-- Row 3 -->
  <rect x="245" y="248" width="165" height="44" rx="10" fill="#ffd8a8" stroke="#f08c00" stroke-width="2" filter="url(#shadow)"/>
  <text x="327" y="275" text-anchor="middle" font-size="12" font-weight="600" fill="#1e1e1e">9. PR Review</text>
  <text x="327" y="306" text-anchor="middle" font-size="10" fill="#757575">frndos-pr (sequential)</text>
  <line x1="410" y1="270" x2="430" y2="270" stroke="#444" stroke-width="2" marker-end="url(#arrow)"/>

  <rect x="435" y="248" width="165" height="44" rx="10" fill="#ffc9c9" stroke="#e03131" stroke-width="2" filter="url(#shadow)"/>
  <text x="517" y="275" text-anchor="middle" font-size="12" font-weight="600" fill="#1e1e1e">10. Completion</text>
  <text x="517" y="306" text-anchor="middle" font-size="10" fill="#757575">frndos-track</text>

  <!-- Back to idle -->
  <path d="M 517 292 Q 517 340 60 340 Q 10 340 10 310 L 10 116" fill="none" stroke="#999" stroke-width="1.5" stroke-dasharray="6 3" marker-end="url(#arrow-gray)"/>
  <text x="280" y="355" text-anchor="middle" font-size="10" fill="#999" font-style="italic">back to Idle</text>

  <!-- Legend -->
  <text x="30" y="400" font-size="12" font-weight="600" fill="#1e1e1e">Legend</text>
  <rect x="30" y="412" width="12" height="12" rx="2" fill="#a5d8ff" stroke="#1971c2" stroke-width="1"/>
  <text x="48" y="423" font-size="11" fill="#757575">Planning</text>
  <rect x="110" y="412" width="12" height="12" rx="2" fill="#d0bfff" stroke="#9c36b5" stroke-width="1"/>
  <text x="128" y="423" font-size="11" fill="#757575">Design</text>
  <rect x="185" y="412" width="12" height="12" rx="2" fill="#b2f2bb" stroke="#2f9e44" stroke-width="1"/>
  <text x="203" y="423" font-size="11" fill="#757575">Build</text>
  <rect x="245" y="412" width="12" height="12" rx="2" fill="#ffd8a8" stroke="#f08c00" stroke-width="1"/>
  <text x="263" y="423" font-size="11" fill="#757575">Ship</text>
  <rect x="300" y="412" width="12" height="12" rx="2" fill="#ffc9c9" stroke="#e03131" stroke-width="1"/>
  <text x="318" y="423" font-size="11" fill="#757575">Complete</text>

  <line x1="400" y1="418" x2="450" y2="418" stroke="#f08c00" stroke-width="1.5" stroke-dasharray="6 3"/>
  <text x="456" y="423" font-size="11" fill="#f08c00">skip wireframe path</text>
  <line x1="600" y1="418" x2="650" y2="418" stroke="#2f9e44" stroke-width="1.5" stroke-dasharray="6 3"/>
  <text x="656" y="423" font-size="11" fill="#2f9e44">Agent Teams shortcut (impl → completion)</text>
</svg>
